<svg xmlns="http://www.w3.org/2000/svg" width="16" height="16" fill="none" viewBox="0 0 16 16">
  <path fill="currentColor" fill-rule="evenodd" d="M8 1c5.77 0 7 1.24 7 7s-1.24 7-7 7-7-1.24-7-7 1.24-7 7-7M6 4a.5.5 0 0 0-.5.5v.56c-.82.18-1.5.82-1.5 1.69 0 .52.24.92.6 1.2q.55.39 1.3.54.61.14.88.35.23.17.22.41c0 .33-.36.75-1 .75s-1-.42-1-.75a.5.5 0 0 0-1 0c0 .87.68 1.5 1.5 1.7v.55a.5.5 0 0 0 1 0v-.56c.82-.18 1.5-.82 1.5-1.69 0-.52-.24-.92-.6-1.2a3 3 0 0 0-1.3-.54q-.61-.14-.88-.35Q4.99 7 5 6.75C5 6.42 5.36 6 6 6s1 .42 1 .75a.5.5 0 0 0 1 0c0-.87-.68-1.5-1.5-1.7V4.5A.5.5 0 0 0 6 4m2.5 7a.5.5 0 0 0 0 1h3a.5.5 0 0 0 0-1z" clip-rule="evenodd"/>
</svg>
