<svg xmlns="http://www.w3.org/2000/svg" width="16" height="16" fill="none" viewBox="0 0 16 16">
  <path fill="currentColor" d="M8.2 8.3q1.54 0 1.55 1.14-.02 1.13-1.5 1.14H6.78V8.3zm0-2.88c.79 0 1.23.35 1.23 1 0 .68-.52 1.06-1.45 1.06h-1.2V5.42z"/>
  <path fill="currentColor" fill-rule="evenodd" d="M11.72 1.5A2.5 2.5 0 0 1 14.2 4q.02 1.08.3 2.09c.22.73.56 1.24 1.08 1.45.22.08.4.27.4.5s-.18.43-.4.51q-.76.34-1.08 1.45c-.2.65-.27 1.32-.3 2a2.5 2.5 0 0 1-2.48 2.5H4.25A2.6 2.6 0 0 1 1.7 12c-.04-.85-.1-1.68-.22-2.04C1.26 9.23.92 8.7.4 8.5.18 8.42 0 8.23 0 8s.18-.42.4-.5q.77-.35 1.09-1.46c.1-.36.17-1.19.2-2.04a2.6 2.6 0 0 1 2.56-2.5zM5.97 4.54a.3.3 0 0 0-.2.08.3.3 0 0 0-.07.2v6.36q0 .1.08.2.07.08.19.08h2.51c1.48 0 2.37-.74 2.37-1.96 0-.92-.64-1.58-1.58-1.69v-.04c.7-.11 1.24-.77 1.24-1.5 0-1.05-.81-1.73-2.04-1.73z" clip-rule="evenodd"/>
</svg>
