<svg xmlns="http://www.w3.org/2000/svg" width="16" height="16" fill="none" viewBox="0 0 16 16">
  <path fill="currentColor" fill-rule="evenodd" d="M8 1q1.99-.02 3.35.27c.91.2 1.67.54 2.26 1.13s.92 1.34 1.12 2.25Q15.01 6.01 15 8a13 13 0 0 1-.27 3.35c-.2.91-.54 1.67-1.12 2.26s-1.34.92-2.26 1.12Q9.99 15.01 8 15a13 13 0 0 1-3.35-.27 4.4 4.4 0 0 1-2.25-1.12 4.4 4.4 0 0 1-1.13-2.26Q.99 9.99 1 8c.01-1.99.07-2.44.27-3.35S1.8 2.98 2.4 2.4a4.4 4.4 0 0 1 2.25-1.13Q6.01.99 8 1" class="subtract" clip-rule="evenodd" opacity=".2"/>
  <path fill="currentColor" d="M6.15 5.15a.5.5 0 1 1 .7.7L4.71 8l2.14 2.15a.5.5 0 1 1-.7.7l-2.5-2.5a.5.5 0 0 1 0-.7zm3 0a.5.5 0 0 1 .7 0l2.5 2.5a.5.5 0 0 1 0 .7l-2.5 2.5a.5.5 0 1 1-.7-.7L11.29 8 9.15 5.85a.5.5 0 0 1 0-.7" class="vector-stroke"/>
</svg>
