<svg xmlns="http://www.w3.org/2000/svg" width="16" height="16" fill="none" viewBox="0 0 16 16">
  <path fill="currentColor" fill-rule="evenodd" d="M8 0c6.59 0 8 1.41 8 8s-1.41 8-8 8-8-1.41-8-8V1a1 1 0 0 1 1-1zM4.05 5.23q-.46 0-.82.16a2 2 0 0 0-.63.47q-.25.32-.4.77a4 4 0 0 0-.13 1.03v1q0 .57.13 1.03.13.45.38.76.26.3.62.47t.82.16q.61 0 1.03-.23t.66-.66.25-1.06H4.92q-.02.42-.11.65a.6.6 0 0 1-.28.34 1 1 0 0 1-.5.1 1 1 0 0 1-.44-.1 1 1 0 0 1-.28-.3 2 2 0 0 1-.15-.48 4 4 0 0 1-.05-.69v-1q0-.4.06-.7a1 1 0 0 1 .16-.48 1 1 0 0 1 .3-.28q.18-.09.42-.09.32 0 .5.1a.6.6 0 0 1 .27.36q.09.24.1.66h1.05q-.04-.64-.26-1.08a1.6 1.6 0 0 0-.64-.68q-.4-.23-1.02-.23m4.1 0q-.39 0-.71.12a2 2 0 0 0-.55.32 1.4 1.4 0 0 0-.37.5 2 2 0 0 0-.12.64q0 .36.13.63t.36.47.52.35.62.28q.28.12.46.23.17.1.27.21l.12.24q.04.13.04.3a1 1 0 0 1-.07.36.5.5 0 0 1-.23.25 1 1 0 0 1-.4.09q-.2 0-.37-.05a1 1 0 0 1-.28-.17 1 1 0 0 1-.17-.3 2 2 0 0 1-.06-.46H6.3q0 .47.15.82t.42.57.6.34.74.11.72-.11a2 2 0 0 0 .56-.32q.23-.2.35-.5.12-.28.12-.64a2 2 0 0 0-.1-.63 1.4 1.4 0 0 0-.3-.5 2 2 0 0 0-.49-.4 4 4 0 0 0-.69-.32L8 7.49l-.3-.19-.18-.21-.07-.27q0-.21.08-.37a.6.6 0 0 1 .23-.26 1 1 0 0 1 .4-.1q.25 0 .42.12t.24.31.07.46h1.05q0-.5-.22-.89a1.6 1.6 0 0 0-.6-.62q-.4-.23-.95-.23m4.04 0q-.4 0-.72.11a2 2 0 0 0-.55.32 1.4 1.4 0 0 0-.37.5 2 2 0 0 0-.12.64q0 .36.13.63t.36.47.53.35.62.29q.27.1.45.22.18.1.27.21l.12.25q.04.12.04.3a1 1 0 0 1-.07.36.5.5 0 0 1-.22.24 1 1 0 0 1-.4.1q-.2 0-.37-.06a1 1 0 0 1-.28-.17 1 1 0 0 1-.18-.3 2 2 0 0 1-.06-.46h-1.04q0 .47.15.82t.42.57.6.34.74.11.72-.1q.33-.12.56-.33.23-.2.35-.5.12-.28.12-.64a2 2 0 0 0-.1-.63 1.4 1.4 0 0 0-.3-.5 2 2 0 0 0-.49-.4 4 4 0 0 0-.69-.32l-.39-.17-.29-.19a1 1 0 0 1-.2-.21l-.06-.27q0-.2.08-.37a.6.6 0 0 1 .23-.26 1 1 0 0 1 .4-.1q.25 0 .42.12a.6.6 0 0 1 .24.32q.07.2.07.45h1.05q0-.5-.22-.89a1.6 1.6 0 0 0-.6-.62q-.4-.23-.95-.23" clip-rule="evenodd"/>
</svg>
