<svg xmlns="http://www.w3.org/2000/svg" width="16" height="16" fill="none" viewBox="0 0 16 16">
  <path fill="currentColor" d="M7 9s.5 1.017.5 1.9c0 .884-.672 1.6-1.5 1.6s-1.5-.716-1.5-1.6c0-.883.5-1.9.5-1.9h1V8h1zM6 8H5V7h1zm1-1H6V6h1zM6 6H5V5h1zm1-1H6V4h1zM6 4H5V3h1z"/>
  <path fill="currentColor" fill-rule="evenodd" d="M9.501 1c.132 0 .26.053.353.146l4 4a.5.5 0 0 1 .147.354v7a2.5 2.5 0 0 1-2.5 2.5h-7c-1.38 0-2.5-1.12-2.501-2.5v-9C2 2.12 3.12 1 4.501 1zm-5 1a1.5 1.5 0 0 0-1.5 1.5v9a1.5 1.5 0 0 0 1.5 1.5h7a1.5 1.5 0 0 0 1.5-1.5V6h-2a2 2 0 0 1-2-2V2H7v1H6V2z" clip-rule="evenodd"/>
</svg>
