<svg xmlns="http://www.w3.org/2000/svg" width="16" height="16" fill="none" viewBox="0 0 16 16">
  <path fill="currentColor" d="M8.5 11a.5.5 0 0 1 0 1h-3a.5.5 0 0 1 0-1zm2-2a.5.5 0 0 1 0 1h-5a.5.5 0 0 1 0-1z"/>
  <path fill="currentColor" fill-rule="evenodd" d="M9.5 1a.5.5 0 0 1 .35.15l4 4a.5.5 0 0 1 .15.35v7a2.5 2.5 0 0 1-2.5 2.5h-7A2.5 2.5 0 0 1 2 12.5v-9A2.5 2.5 0 0 1 4.5 1zm-5 1A1.5 1.5 0 0 0 3 3.5v9A1.5 1.5 0 0 0 4.5 14h7a1.5 1.5 0 0 0 1.5-1.5V6h-2a2 2 0 0 1-2-2V2z" clip-rule="evenodd"/>
</svg>
