<svg xmlns="http://www.w3.org/2000/svg" width="16" height="16" fill="none" viewBox="0 0 16 16">
  <path fill="currentColor" d="M9.501 1c.132 0 .26.053.353.146l4 4a.5.5 0 0 1 .147.354v7a2.5 2.5 0 0 1-2.5 2.5h-7c-1.38 0-2.5-1.12-2.501-2.5v-9C2 2.12 3.12 1 4.501 1zm-5 1a1.5 1.5 0 0 0-1.5 1.5v9a1.5 1.5 0 0 0 1.5 1.5h7a1.5 1.5 0 0 0 1.5-1.5V6h-2a2 2 0 0 1-2-2V2zM11.5 8a.5.5 0 0 1 .5.5v4a.5.5 0 0 1-.5.5h-7a.5.5 0 0 1-.5-.5v-4a.5.5 0 0 1 .5-.5zM5 12h2.5v-1H5zm3.5 0H11v-1H8.5zM5 10h2.5V9H5zm3.5 0H11V9H8.5z"/>
</svg>
