<svg xmlns="http://www.w3.org/2000/svg" width="16" height="16" fill="none" viewBox="0 0 16 16">
  <path fill="currentColor" fill-rule="evenodd" d="M4.585 2a2 2 0 0 1 1.028.285l1.788 1.072a1 1 0 0 0 .514.143H12a2 2 0 0 1 2 2V12a2 2 0 0 1-2 2H2a2 2 0 0 1-.403-.041A2 2 0 0 1 0 12v-1.25h1v-1H0V4a2 2 0 0 1 2-2zM9.9 8.25c-.883 0-1.9.5-1.9.5H7v1h1v1s1.017.5 1.9.5c.884 0 1.6-.672 1.6-1.5s-.716-1.5-1.6-1.5M2 9.75v1h1v-1zm2 0v1h1v-1zm2 0v1h1v-1zm-5-1v1h1v-1zm2 0v1h1v-1zm2 0v1h1v-1zM2 3a1 1 0 0 0-1 1v2h12v-.5a1 1 0 0 0-1-1H7.915a2 2 0 0 1-1.028-.285L5.099 3.143A1 1 0 0 0 4.585 3z" clip-rule="evenodd"/>
</svg>
