<svg xmlns="http://www.w3.org/2000/svg" width="16" height="16" fill="none" viewBox="0 0 16 16">
  <path fill="currentColor" d="M14 15H5a2 2 0 0 1-2-2V7a2 2 0 0 1 2-2h2.2a2 2 0 0 1 1.38.552l.34.325a2 2 0 0 0 1.38.552H14a2 2 0 0 1 2 2V13a2 2 0 0 1-2 2" class="fg"/>
  <path fill="currentColor" d="M4.4 1a1.5 1.5 0 0 1 1.035.414l.63.6A1.5 1.5 0 0 0 7.1 2.43H11a2 2 0 0 1 2 2v1h-2.9a.5.5 0 0 1-.345-.138l-.631-.602A2.5 2.5 0 0 0 7.4 4H4.5A2.5 2.5 0 0 0 2 6.5V11a2 2 0 0 1-2-2V3a2 2 0 0 1 2-2z" class="bg" opacity=".4"/>
</svg>
