<svg xmlns="http://www.w3.org/2000/svg" width="16" height="16" fill="none" viewBox="0 0 16 16">
  <path fill="currentColor" d="M9.04 1.93c-.1-1.24-1.98-1.24-2.08 0-.07.89-1.24 1.25-1.84.57-.84-.95-2.37.12-1.69 1.17.5.76-.23 1.71-1.13 1.5-1.26-.29-1.84 1.43-.65 1.9a.99.99 0 0 1 0 1.86c-1.2.47-.6 2.19.65 1.9.9-.21 1.62.73 1.13 1.5-.68 1.05.85 2.11 1.69 1.17.6-.68 1.77-.32 1.84.57.1 1.24 1.98 1.24 2.08 0 .07-.89 1.24-1.25 1.84-.57.84.94 2.36-.12 1.69-1.17-.5-.77.23-1.71 1.13-1.5 1.26.29 1.84-1.43.65-1.9a.99.99 0 0 1 0-1.86c1.2-.47.6-2.19-.65-1.9-.9.21-1.62-.73-1.13-1.5.68-1.05-.85-2.11-1.69-1.17-.6.68-1.77.32-1.84-.57M8 10.6c-1.5 0-2.73-1.17-2.73-2.61S6.5 5.39 8 5.39 10.73 6.56 10.73 8 9.5 10.61 8 10.61"/>
</svg>
