<svg xmlns="http://www.w3.org/2000/svg" width="16" height="16" fill="none" viewBox="0 0 16 16">
  <path fill="currentColor" fill-rule="evenodd" d="M8 0c6.59 0 8 1.41 8 8s-1.41 8-8 8-8-1.41-8-8 1.41-8 8-8M6.17 5.1v4.45q0 .34-.08.57a1 1 0 0 1-.22.37.5.5 0 0 1-.35.12 1 1 0 0 1-.33-.1.6.6 0 0 1-.23-.3 2 2 0 0 1-.08-.57H3.7q0 .66.23 1.1.24.42.65.64.42.2.94.2t.93-.23a1.7 1.7 0 0 0 .65-.7q.25-.46.24-1.1V5.1zm3.96-.09q-.44 0-.8.13t-.62.37a2 2 0 0 0-.41.56q-.14.32-.14.72t.14.7.41.53.59.4.7.32q.3.12.5.25.2.12.31.24a1 1 0 0 1 .14.27q.04.15.04.34 0 .22-.08.4a.6.6 0 0 1-.25.28 1 1 0 0 1-.45.1q-.23 0-.41-.05a1 1 0 0 1-.32-.2 1 1 0 0 1-.2-.34 2 2 0 0 1-.06-.5H8.04q0 .52.17.91t.47.64.69.39q.39.12.82.12.45 0 .81-.12a2 2 0 0 0 .63-.36q.26-.24.4-.56a2 2 0 0 0 .13-.72q0-.4-.1-.72a2 2 0 0 0-.34-.55 2 2 0 0 0-.55-.45 5 5 0 0 0-.78-.37l-.44-.19-.33-.21a1 1 0 0 1-.22-.24 1 1 0 0 1-.07-.3q0-.24.08-.42a.6.6 0 0 1 .26-.29 1 1 0 0 1 .45-.1q.29 0 .48.12a.7.7 0 0 1 .26.35q.1.23.1.52h1.16q0-.56-.24-1a2 2 0 0 0-.68-.7Q10.75 5 10.13 5" clip-rule="evenodd"/>
</svg>
