<svg xmlns="http://www.w3.org/2000/svg" width="16" height="16" fill="none" viewBox="0 0 16 16">
  <path fill="currentColor" d="m9.41 6.8-.43 2.4h-2.4l.44-2.4z"/>
  <path fill="currentColor" fill-rule="evenodd" d="M8 1c5.76 0 7 1.24 7 7s-1.24 7-7 7-7-1.24-7-7 1.24-7 7-7m2.48 2.76a.5.5 0 0 0-.59.4L9.6 5.8H7.2l.27-1.46a.5.5 0 0 0-.98-.18l-.3 1.64H4.93a.5.5 0 0 0 0 1h1.08l-.44 2.4H4.25a.5.5 0 0 0 0 1h1.14l-.27 1.46a.5.5 0 0 0 .99.18l.3-1.64H8.8l-.27 1.46a.5.5 0 0 0 .98.18l.3-1.64h1.26a.5.5 0 0 0 0-1H9.99l.44-2.4h1.32a.5.5 0 0 0 0-1h-1.14l.27-1.46a.5.5 0 0 0-.4-.58" clip-rule="evenodd"/>
</svg>
