<svg xmlns="http://www.w3.org/2000/svg" width="16" height="16" fill="none" viewBox="0 0 16 16">
  <path fill="currentColor" fill-rule="evenodd" d="M8 1c5.77 0 7 1.24 7 7s-1.24 7-7 7-7-1.24-7-7 1.24-7 7-7M6.28 5.09v4.3c0 .84-.17 1.02-.94 1.02-.7 0-.85-.16-.85-.92H3.5c-.03 1.49.3 1.81 1.86 1.81 1.57 0 1.91-.33 1.91-1.87V5.09zM10.31 5c-1.77 0-2.16.3-2.16 1.62 0 1.15.39 1.48 2.18 1.86 1 .22 1.2.4 1.2 1.07 0 .7-.2.85-1.2.85s-1.24-.13-1.28-.76h-.94c-.03 1.36.36 1.66 2.15 1.66 1.83 0 2.24-.31 2.24-1.75 0-1.27-.39-1.62-2.15-2-1.02-.23-1.24-.4-1.24-.92 0-.6.22-.74 1.22-.74.87 0 1.08.1 1.1.53h.95C12.35 5.26 11.98 5 10.31 5" clip-rule="evenodd"/>
</svg>
