<svg xmlns="http://www.w3.org/2000/svg" width="16" height="16" fill="none" viewBox="0 0 16 16">
  <path fill="currentColor" d="M8 1c5.77 0 7 1.24 7 7s-1.24 7-7 7-7-1.24-7-7 1.24-7 7-7m2.31 4c-1.77 0-2.16.3-2.16 1.62 0 1.15.39 1.48 2.18 1.86 1 .22 1.2.4 1.2 1.07 0 .7-.2.85-1.2.85s-1.24-.13-1.28-.76h-.94c-.03 1.36.36 1.66 2.15 1.66 1.83 0 2.24-.31 2.24-1.75 0-1.27-.39-1.62-2.15-2-1.02-.23-1.24-.4-1.24-.92 0-.6.22-.74 1.22-.74.87 0 1.08.1 1.1.53h.95C12.35 5.26 11.98 5 10.31 5m-6.81.09v.9h1.61v5.22h.98V5.99h1.62v-.9z" opacity=".2"/>
  <path fill="currentColor" fill-rule="evenodd" d="M8 1c5.77 0 7 1.24 7 7s-1.24 7-7 7-7-1.24-7-7 1.24-7 7-7m2.31 4c-1.77 0-2.16.3-2.16 1.62 0 1.15.39 1.48 2.18 1.86 1 .22 1.2.4 1.2 1.07 0 .7-.2.85-1.2.85s-1.24-.13-1.28-.76h-.94c-.03 1.36.36 1.66 2.15 1.66 1.83 0 2.24-.31 2.24-1.75 0-1.27-.39-1.62-2.15-2-1.02-.23-1.24-.4-1.24-.92 0-.6.22-.74 1.22-.74.87 0 1.08.1 1.1.53h.95C12.35 5.26 11.98 5 10.31 5m-6.81.09v.9h1.61v5.22h.98V5.99h1.62v-.9z" clip-rule="evenodd"/>
</svg>
