<svg xmlns="http://www.w3.org/2000/svg" width="16" height="16" fill="none" viewBox="0 0 16 16">
  <path fill="currentColor" d="M8 1c5.77 0 7 1.24 7 7s-1.24 7-7 7-7-1.24-7-7V2a1 1 0 0 1 1-1zM4.18 5.5C2.86 5.5 2.5 6.04 2.5 8c0 2.05.3 2.5 1.68 2.5 1.19 0 1.47-.24 1.56-1.3h-.76c-.07.48-.22.6-.8.6-.74 0-.9-.34-.9-1.8s.16-1.79.9-1.79c.54 0 .68.12.76.64h.76c-.08-1.1-.36-1.35-1.52-1.35m3.73 0c-1.37 0-1.67.24-1.67 1.29 0 .91.3 1.17 1.69 1.47.76.18.93.33.93.85 0 .56-.17.68-.93.68-.78 0-.96-.11-1-.6h-.72c-.02 1.07.27 1.31 1.66 1.31 1.42 0 1.73-.25 1.73-1.4 0-1-.3-1.28-1.66-1.58-.79-.18-.96-.31-.96-.73 0-.48.17-.58.95-.58.67 0 .83.08.85.42h.73C9.5 5.7 9.2 5.5 7.91 5.5m3.9 0c-1.37 0-1.67.24-1.67 1.29 0 .91.3 1.17 1.68 1.47.77.18.94.33.94.85 0 .56-.17.68-.94.68s-.96-.11-.99-.6h-.73c-.02 1.07.28 1.31 1.67 1.31 1.42 0 1.73-.25 1.73-1.4 0-1-.3-1.28-1.66-1.58-.79-.18-.96-.31-.96-.73 0-.48.17-.58.94-.58.68 0 .84.08.85.42h.74c-.03-.92-.31-1.13-1.6-1.13"/>
</svg>
