<svg xmlns="http://www.w3.org/2000/svg" width="16" height="16" fill="none" viewBox="0 0 16 16">
  <path fill="currentColor" d="M8 1c1.81 0 3.22.13 4.28.54a3.7 3.7 0 0 1 2.22 2.29q.32.9.42 2.13Q15 6.87 15 8q.02 2.02-.27 3.38-.28 1.38-1.12 2.23c-.84.85-1.3.91-2.23 1.12q-1.36.29-3.38.27a13 13 0 0 1-3.38-.27q-1.38-.28-2.23-1.12c-.85-.84-.91-1.3-1.12-2.23Q1 10.02 1 8q0-1.12.08-2.04.1-1.23.42-2.13a3.7 3.7 0 0 1 2.22-2.29C4.78 1.13 6.2 1 8 1m5.98 8.18a3 3 0 0 1-.88.85c-1.13.77-2.8.97-5.1.97s-3.97-.2-5.1-.97a3 3 0 0 1-.88-.85q.05 1.16.23 1.99c.18.8.46 1.34.85 1.73s.93.67 1.73.85c.81.18 1.84.25 3.17.25s2.36-.07 3.17-.25c.8-.18 1.34-.46 1.73-.85s.67-.93.85-1.73q.18-.82.23-2m-.14-3.82q-.59.73-1.56 1.1C11.22 6.88 9.8 7 8 7s-3.22-.13-4.28-.54a4 4 0 0 1-1.56-1.1q-.05.3-.08.64c.16 1.75.59 2.67 1.38 3.2.85.58 2.23.8 4.54.8s3.69-.22 4.54-.8c.8-.53 1.22-1.45 1.38-3.2q-.03-.34-.08-.65M8 2c-1.8 0-3.04.13-3.91.47A2.6 2.6 0 0 0 2.5 4c.32.76.8 1.23 1.58 1.53C4.96 5.87 6.2 6 8 6s3.04-.13 3.91-.47A2.6 2.6 0 0 0 13.5 4a2.6 2.6 0 0 0-1.58-1.53C11.04 2.13 9.8 2 8 2"/>
</svg>
