<svg xmlns="http://www.w3.org/2000/svg" width="16" height="16" fill="none" viewBox="0 0 16 16">
  <path fill="currentColor" fill-rule="evenodd" d="M8 0c6.59 0 8 1.41 8 8s-1.41 8-8 8-8-1.41-8-8 1.41-8 8-8m2.32 5.01q-.44 0-.8.13t-.63.37a2 2 0 0 0-.4.56q-.15.32-.15.72t.14.7.41.53.6.4.7.32q.3.12.5.25.2.12.3.24a1 1 0 0 1 .14.27q.04.15.04.34 0 .22-.08.4a.6.6 0 0 1-.25.28 1 1 0 0 1-.44.1q-.24 0-.42-.05a1 1 0 0 1-.32-.2 1 1 0 0 1-.2-.34 2 2 0 0 1-.06-.5H8.23q0 .52.17.91t.47.64.68.39q.4.12.82.12.45 0 .82-.12.37-.13.63-.36.26-.24.4-.56.13-.33.13-.72a2 2 0 0 0-.11-.72 2 2 0 0 0-.34-.55 2 2 0 0 0-.55-.45 5 5 0 0 0-.78-.37l-.44-.19-.33-.21a1 1 0 0 1-.21-.24 1 1 0 0 1-.08-.3q0-.24.09-.42a.6.6 0 0 1 .26-.29 1 1 0 0 1 .45-.1q.29 0 .47.12a.7.7 0 0 1 .27.35q.09.23.09.52h1.17q0-.56-.24-1a2 2 0 0 0-.69-.7Q10.94 5 10.32 5m-6.79.1v.98h1.59v5.41h1.17v-5.4H7.9V5.1z" clip-rule="evenodd"/>
</svg>
